<?xml version="1.0" encoding="UTF-8" standalone="no"?>
<!-- Created with Inkscape (http://www.inkscape.org/) -->

<svg
   xmlns:dc="http://purl.org/dc/elements/1.1/"
   xmlns:cc="http://creativecommons.org/ns#"
   xmlns:rdf="http://www.w3.org/1999/02/22-rdf-syntax-ns#"
   xmlns:svg="http://www.w3.org/2000/svg"
   xmlns="http://www.w3.org/2000/svg"
   xmlns:sodipodi="http://sodipodi.sourceforge.net/DTD/sodipodi-0.dtd"
   xmlns:inkscape="http://www.inkscape.org/namespaces/inkscape"
   id="svg2"
   version="1.1"
   inkscape:version="0.48.4 r9939"
   width="600"
   height="451.25"
   xml:space="preserve"
   sodipodi:docname="GPS_spectra_iter3.svg"><metadata
     id="metadata8"><rdf:RDF><cc:Work
         rdf:about=""><dc:format>image/svg+xml</dc:format><dc:type
           rdf:resource="http://purl.org/dc/dcmitype/StillImage" /><dc:title /></cc:Work></rdf:RDF></metadata><defs
     id="defs6"><clipPath
       clipPathUnits="userSpaceOnUse"
       id="clipPath18"><path
         d="m 0,8.33203 4800,0 0,3601.66997 -4800,0 L 0,8.33203 z"
         id="path20" /></clipPath><clipPath
       clipPathUnits="userSpaceOnUse"
       id="clipPath234"><path
         d="m 624.168,3340 3724.162,0 0,-2904.168 -3724.162,0 0,2904.168 z"
         id="path236" /></clipPath><clipPath
       clipPathUnits="userSpaceOnUse"
       id="clipPath256"><path
         d="m 0,8 0,3602 4800,0 L 4800,8 0,8 z"
         id="path258" /></clipPath></defs><sodipodi:namedview
     pagecolor="#ffffff"
     bordercolor="#666666"
     borderopacity="1"
     objecttolerance="10"
     gridtolerance="10"
     guidetolerance="10"
     inkscape:pageopacity="0"
     inkscape:pageshadow="2"
     inkscape:window-width="1600"
     inkscape:window-height="852"
     id="namedview4"
     showgrid="false"
     inkscape:zoom="1.0459834"
     inkscape:cx="52.271794"
     inkscape:cy="185.09105"
     inkscape:window-x="0"
     inkscape:window-y="0"
     inkscape:window-maximized="1"
     inkscape:current-layer="g12" /><g
     id="g10"
     inkscape:groupmode="layer"
     inkscape:label="ink_ext_XXXXXX"
     transform="matrix(1.25,0,0,-1.25,0,451.25)"><g
       id="g12"
       transform="scale(0.1,0.1)"><g
         id="g14"><g
           id="g16"
           clip-path="url(#clipPath18)"><path
             d="m 0,8.33203 4800,0 0,3601.66997 -4800,0 L 0,8.33203 z"
             style="fill:#ffffff;fill-opacity:1;fill-rule:nonzero;stroke:none"
             id="path22" /><path
             d="m 624.168,436.668 3723.33,0 0,2903.33 -3723.33,0 0,-2903.33 z"
             style="fill:#ffffff;fill-opacity:1;fill-rule:evenodd;stroke:none"
             id="path24" /><path
             d="m 624.168,436.668 0,2903.332 3723.332,0 0,-2903.332 -3723.332,0"
             style="fill:none;stroke:#ffffff;stroke-opacity:1;stroke-width:20;stroke-linecap:butt;stroke-linejoin:round;stroke-miterlimit:10;stroke-dasharray:none"
             id="path26" /><path
             d="m 624.168,436.668 0,2903.332"
             style="fill:none;stroke:#000000;stroke-opacity:1;stroke-width:13.3333;stroke-linecap:butt;stroke-linejoin:round;stroke-miterlimit:10;stroke-dasharray:5,40;stroke-dashoffset:0"
             id="path28" /><path
             d="m 624.168,3340 0,0"
             style="fill:none;stroke:#000000;stroke-opacity:1;stroke-width:13.3333;stroke-linecap:butt;stroke-linejoin:round;stroke-miterlimit:10;stroke-dasharray:5,40;stroke-dashoffset:0"
             id="path30" /><path
             d="m 1368.33,436.668 0,2903.332"
             style="fill:none;stroke:#000000;stroke-opacity:1;stroke-width:13.3333;stroke-linecap:butt;stroke-linejoin:round;stroke-miterlimit:10;stroke-dasharray:5,40;stroke-dashoffset:0"
             id="path32" /><path
             d="m 1368.33,3340 0,0"
             style="fill:none;stroke:#000000;stroke-opacity:1;stroke-width:13.3333;stroke-linecap:butt;stroke-linejoin:round;stroke-miterlimit:10;stroke-dasharray:5,40;stroke-dashoffset:0"
             id="path34" /><path
             d="m 2113.33,436.668 0,2903.332"
             style="fill:none;stroke:#000000;stroke-opacity:1;stroke-width:13.3333;stroke-linecap:butt;stroke-linejoin:round;stroke-miterlimit:10;stroke-dasharray:5,40;stroke-dashoffset:0"
             id="path36" /><path
             d="m 2113.33,3340 0,0"
             style="fill:none;stroke:#000000;stroke-opacity:1;stroke-width:13.3333;stroke-linecap:butt;stroke-linejoin:round;stroke-miterlimit:10;stroke-dasharray:5,40;stroke-dashoffset:0"
             id="path38" /><path
             d="m 2857.5,436.668 0,2903.332"
             style="fill:none;stroke:#000000;stroke-opacity:1;stroke-width:13.3333;stroke-linecap:butt;stroke-linejoin:round;stroke-miterlimit:10;stroke-dasharray:5,40;stroke-dashoffset:0"
             id="path40" /><path
             d="m 2857.5,3340 0,0"
             style="fill:none;stroke:#000000;stroke-opacity:1;stroke-width:13.3333;stroke-linecap:butt;stroke-linejoin:round;stroke-miterlimit:10;stroke-dasharray:5,40;stroke-dashoffset:0"
             id="path42" /><path
             d="m 3602.5,436.668 0,2903.332"
             style="fill:none;stroke:#000000;stroke-opacity:1;stroke-width:13.3333;stroke-linecap:butt;stroke-linejoin:round;stroke-miterlimit:10;stroke-dasharray:5,40;stroke-dashoffset:0"
             id="path44" /><path
             d="m 3602.5,3340 0,0"
             style="fill:none;stroke:#000000;stroke-opacity:1;stroke-width:13.3333;stroke-linecap:butt;stroke-linejoin:round;stroke-miterlimit:10;stroke-dasharray:5,40;stroke-dashoffset:0"
             id="path46" /><path
             d="m 4347.5,436.668 0,2903.332"
             style="fill:none;stroke:#000000;stroke-opacity:1;stroke-width:13.3333;stroke-linecap:butt;stroke-linejoin:round;stroke-miterlimit:10;stroke-dasharray:5,40;stroke-dashoffset:0"
             id="path48" /><path
             d="m 4347.5,3340 0,0"
             style="fill:none;stroke:#000000;stroke-opacity:1;stroke-width:13.3333;stroke-linecap:butt;stroke-linejoin:round;stroke-miterlimit:10;stroke-dasharray:5,40;stroke-dashoffset:0"
             id="path50" /><path
             d="m 624.168,436.668 3723.332,0"
             style="fill:none;stroke:#000000;stroke-opacity:1;stroke-width:13.3333;stroke-linecap:butt;stroke-linejoin:round;stroke-miterlimit:10;stroke-dasharray:5,40;stroke-dashoffset:0"
             id="path52" /><path
             d="m 4347.5,436.668 0,0"
             style="fill:none;stroke:#000000;stroke-opacity:1;stroke-width:13.3333;stroke-linecap:butt;stroke-linejoin:round;stroke-miterlimit:10;stroke-dasharray:5,40;stroke-dashoffset:0"
             id="path54" /><path
             d="m 624.168,920.832 3723.332,0"
             style="fill:none;stroke:#000000;stroke-opacity:1;stroke-width:13.3333;stroke-linecap:butt;stroke-linejoin:round;stroke-miterlimit:10;stroke-dasharray:5,40;stroke-dashoffset:0"
             id="path56" /><path
             d="m 4347.5,920.832 0,0"
             style="fill:none;stroke:#000000;stroke-opacity:1;stroke-width:13.3333;stroke-linecap:butt;stroke-linejoin:round;stroke-miterlimit:10;stroke-dasharray:5,40;stroke-dashoffset:0"
             id="path58" /><path
             d="m 624.168,1405 3723.332,0"
             style="fill:none;stroke:#000000;stroke-opacity:1;stroke-width:13.3333;stroke-linecap:butt;stroke-linejoin:round;stroke-miterlimit:10;stroke-dasharray:5,40;stroke-dashoffset:0"
             id="path60" /><path
             d="m 4347.5,1405 0,0"
             style="fill:none;stroke:#000000;stroke-opacity:1;stroke-width:13.3333;stroke-linecap:butt;stroke-linejoin:round;stroke-miterlimit:10;stroke-dasharray:5,40;stroke-dashoffset:0"
             id="path62" /><path
             d="m 624.168,1888.33 3723.332,0"
             style="fill:none;stroke:#000000;stroke-opacity:1;stroke-width:13.3333;stroke-linecap:butt;stroke-linejoin:round;stroke-miterlimit:10;stroke-dasharray:5,40;stroke-dashoffset:0"
             id="path64" /><path
             d="m 4347.5,1888.33 0,0"
             style="fill:none;stroke:#000000;stroke-opacity:1;stroke-width:13.3333;stroke-linecap:butt;stroke-linejoin:round;stroke-miterlimit:10;stroke-dasharray:5,40;stroke-dashoffset:0"
             id="path66" /><path
             d="m 624.168,2372.5 3723.332,0"
             style="fill:none;stroke:#000000;stroke-opacity:1;stroke-width:13.3333;stroke-linecap:butt;stroke-linejoin:round;stroke-miterlimit:10;stroke-dasharray:5,40;stroke-dashoffset:0"
             id="path68" /><path
             d="m 4347.5,2372.5 0,0"
             style="fill:none;stroke:#000000;stroke-opacity:1;stroke-width:13.3333;stroke-linecap:butt;stroke-linejoin:round;stroke-miterlimit:10;stroke-dasharray:5,40;stroke-dashoffset:0"
             id="path70" /><path
             d="m 624.168,2856.67 3723.332,0"
             style="fill:none;stroke:#000000;stroke-opacity:1;stroke-width:13.3333;stroke-linecap:butt;stroke-linejoin:round;stroke-miterlimit:10;stroke-dasharray:5,40;stroke-dashoffset:0"
             id="path72" /><path
             d="m 4347.5,2856.67 0,0"
             style="fill:none;stroke:#000000;stroke-opacity:1;stroke-width:13.3333;stroke-linecap:butt;stroke-linejoin:round;stroke-miterlimit:10;stroke-dasharray:5,40;stroke-dashoffset:0"
             id="path74" /><path
             d="m 624.168,3340 3723.332,0"
             style="fill:none;stroke:#000000;stroke-opacity:1;stroke-width:13.3333;stroke-linecap:butt;stroke-linejoin:round;stroke-miterlimit:10;stroke-dasharray:5,40;stroke-dashoffset:0"
             id="path76" /><path
             d="m 4347.5,3340 0,0"
             style="fill:none;stroke:#000000;stroke-opacity:1;stroke-width:13.3333;stroke-linecap:butt;stroke-linejoin:round;stroke-miterlimit:10;stroke-dasharray:5,40;stroke-dashoffset:0"
             id="path78" /><path
             d="m 624.168,3340 3723.332,0"
             style="fill:none;stroke:#000000;stroke-opacity:1;stroke-width:20;stroke-linecap:butt;stroke-linejoin:round;stroke-miterlimit:10;stroke-dasharray:none"
             id="path80" /><path
             d="m 624.168,436.668 3723.332,0"
             style="fill:none;stroke:#000000;stroke-opacity:1;stroke-width:20;stroke-linecap:butt;stroke-linejoin:round;stroke-miterlimit:10;stroke-dasharray:none"
             id="path82" /><path
             d="m 4347.5,436.668 0,2903.332"
             style="fill:none;stroke:#000000;stroke-opacity:1;stroke-width:20;stroke-linecap:butt;stroke-linejoin:round;stroke-miterlimit:10;stroke-dasharray:none"
             id="path84" /><path
             d="m 624.168,436.668 0,2903.332"
             style="fill:none;stroke:#000000;stroke-opacity:1;stroke-width:20;stroke-linecap:butt;stroke-linejoin:round;stroke-miterlimit:10;stroke-dasharray:none"
             id="path86" /><path
             d="m 624.168,436.668 3723.332,0"
             style="fill:none;stroke:#000000;stroke-opacity:1;stroke-width:20;stroke-linecap:butt;stroke-linejoin:round;stroke-miterlimit:10;stroke-dasharray:none"
             id="path88" /><path
             d="m 624.168,436.668 0,2903.332"
             style="fill:none;stroke:#000000;stroke-opacity:1;stroke-width:20;stroke-linecap:butt;stroke-linejoin:round;stroke-miterlimit:10;stroke-dasharray:none"
             id="path90" /><path
             d="m 624.168,436.668 0,37.5"
             style="fill:none;stroke:#000000;stroke-opacity:1;stroke-width:20;stroke-linecap:butt;stroke-linejoin:round;stroke-miterlimit:10;stroke-dasharray:none"
             id="path92" /><path
             d="m 624.168,3340 0,-36.67"
             style="fill:none;stroke:#000000;stroke-opacity:1;stroke-width:20;stroke-linecap:butt;stroke-linejoin:round;stroke-miterlimit:10;stroke-dasharray:none"
             id="path94" /><g
             id="g96"
             transform="scale(10,10)"><text
               transform="matrix(1,0,0,-1,57.4168,24.0832)"
               id="text98"><tspan
                 style="fill:#000000;fill-opacity:1;fill-rule:nonzero;stroke:none;font-family:Helvetica;font-variant:normal;font-weight:normal;font-size:18;writing-mode:lr;-inkscape-font-specification:Helvetica"
                 x="0"
                 y="0"
                 id="tspan100">0</tspan></text>
</g><path
             d="m 1368.33,436.668 0,37.5"
             style="fill:none;stroke:#000000;stroke-opacity:1;stroke-width:20;stroke-linecap:butt;stroke-linejoin:round;stroke-miterlimit:10;stroke-dasharray:none"
             id="path102" /><path
             d="m 1368.33,3340 0,-36.67"
             style="fill:none;stroke:#000000;stroke-opacity:1;stroke-width:20;stroke-linecap:butt;stroke-linejoin:round;stroke-miterlimit:10;stroke-dasharray:none"
             id="path104" /><g
             id="g106"
             transform="scale(10,10)"><text
               transform="matrix(1,0,0,-1,124.333,24.0832)"
               id="text108"><tspan
                 style="fill:#000000;fill-opacity:1;fill-rule:nonzero;stroke:none;font-family:Helvetica;font-variant:normal;font-weight:normal;font-size:18;writing-mode:lr;-inkscape-font-specification:Helvetica"
                 x="0 10.008 15.012"
                 y="0"
                 sodipodi:role="line"
                 id="tspan110">0.2</tspan></text>
</g><path
             d="m 2113.33,436.668 0,37.5"
             style="fill:none;stroke:#000000;stroke-opacity:1;stroke-width:20;stroke-linecap:butt;stroke-linejoin:round;stroke-miterlimit:10;stroke-dasharray:none"
             id="path112" /><path
             d="m 2113.33,3340 0,-36.67"
             style="fill:none;stroke:#000000;stroke-opacity:1;stroke-width:20;stroke-linecap:butt;stroke-linejoin:round;stroke-miterlimit:10;stroke-dasharray:none"
             id="path114" /><g
             id="g116"
             transform="scale(10,10)"><text
               transform="matrix(1,0,0,-1,198.833,24.0832)"
               id="text118"><tspan
                 style="fill:#000000;fill-opacity:1;fill-rule:nonzero;stroke:none;font-family:Helvetica;font-variant:normal;font-weight:normal;font-size:18;writing-mode:lr;-inkscape-font-specification:Helvetica"
                 x="0 10.008 15.012"
                 y="0"
                 sodipodi:role="line"
                 id="tspan120">0.4</tspan></text>
</g><path
             d="m 2857.5,436.668 0,37.5"
             style="fill:none;stroke:#000000;stroke-opacity:1;stroke-width:20;stroke-linecap:butt;stroke-linejoin:round;stroke-miterlimit:10;stroke-dasharray:none"
             id="path122" /><path
             d="m 2857.5,3340 0,-36.67"
             style="fill:none;stroke:#000000;stroke-opacity:1;stroke-width:20;stroke-linecap:butt;stroke-linejoin:round;stroke-miterlimit:10;stroke-dasharray:none"
             id="path124" /><g
             id="g126"
             transform="scale(10,10)"><text
               transform="matrix(1,0,0,-1,273.25,24.0832)"
               id="text128"><tspan
                 style="fill:#000000;fill-opacity:1;fill-rule:nonzero;stroke:none;font-family:Helvetica;font-variant:normal;font-weight:normal;font-size:18;writing-mode:lr;-inkscape-font-specification:Helvetica"
                 x="0 10.008 15.012"
                 y="0"
                 sodipodi:role="line"
                 id="tspan130">0.6</tspan></text>
</g><path
             d="m 3602.5,436.668 0,37.5"
             style="fill:none;stroke:#000000;stroke-opacity:1;stroke-width:20;stroke-linecap:butt;stroke-linejoin:round;stroke-miterlimit:10;stroke-dasharray:none"
             id="path132" /><path
             d="m 3602.5,3340 0,-36.67"
             style="fill:none;stroke:#000000;stroke-opacity:1;stroke-width:20;stroke-linecap:butt;stroke-linejoin:round;stroke-miterlimit:10;stroke-dasharray:none"
             id="path134" /><g
             id="g136"
             transform="scale(10,10)"><text
               transform="matrix(1,0,0,-1,347.75,24.0832)"
               id="text138"><tspan
                 style="fill:#000000;fill-opacity:1;fill-rule:nonzero;stroke:none;font-family:Helvetica;font-variant:normal;font-weight:normal;font-size:18;writing-mode:lr;-inkscape-font-specification:Helvetica"
                 x="0 10.008 15.012"
                 y="0"
                 sodipodi:role="line"
                 id="tspan140">0.8</tspan></text>
</g><path
             d="m 4347.5,436.668 0,37.5"
             style="fill:none;stroke:#000000;stroke-opacity:1;stroke-width:20;stroke-linecap:butt;stroke-linejoin:round;stroke-miterlimit:10;stroke-dasharray:none"
             id="path142" /><path
             d="m 4347.5,3340 0,-36.67"
             style="fill:none;stroke:#000000;stroke-opacity:1;stroke-width:20;stroke-linecap:butt;stroke-linejoin:round;stroke-miterlimit:10;stroke-dasharray:none"
             id="path144" /><g
             id="g146"
             transform="scale(10,10)"><text
               transform="matrix(1,0,0,-1,429.75,24.0832)"
               id="text148"><tspan
                 style="fill:#000000;fill-opacity:1;fill-rule:nonzero;stroke:none;font-family:Helvetica;font-variant:normal;font-weight:normal;font-size:18;writing-mode:lr;-inkscape-font-specification:Helvetica"
                 x="0"
                 y="0"
                 id="tspan150">1</tspan></text>
</g><path
             d="m 624.168,436.668 36.664,0"
             style="fill:none;stroke:#000000;stroke-opacity:1;stroke-width:20;stroke-linecap:butt;stroke-linejoin:round;stroke-miterlimit:10;stroke-dasharray:none"
             id="path152" /><path
             d="m 4347.5,436.668 -37.5,0"
             style="fill:none;stroke:#000000;stroke-opacity:1;stroke-width:20;stroke-linecap:butt;stroke-linejoin:round;stroke-miterlimit:10;stroke-dasharray:none"
             id="path154" /><g
             id="g156"
             transform="scale(10,10)"><text
               transform="matrix(1,0,0,-1,29,37)"
               id="text158"><tspan
                 style="fill:#000000;fill-opacity:1;fill-rule:nonzero;stroke:none;font-family:Helvetica;font-variant:normal;font-weight:normal;font-size:18;writing-mode:lr;-inkscape-font-specification:Helvetica"
                 x="0 10.512 20.52"
                 y="0"
                 sodipodi:role="line"
                 id="tspan160">−80</tspan></text>
</g><path
             d="m 624.168,920.832 36.664,0"
             style="fill:none;stroke:#000000;stroke-opacity:1;stroke-width:20;stroke-linecap:butt;stroke-linejoin:round;stroke-miterlimit:10;stroke-dasharray:none"
             id="path162" /><path
             d="m 4347.5,920.832 -37.5,0"
             style="fill:none;stroke:#000000;stroke-opacity:1;stroke-width:20;stroke-linecap:butt;stroke-linejoin:round;stroke-miterlimit:10;stroke-dasharray:none"
             id="path164" /><g
             id="g166"
             transform="scale(10,10)"><text
               transform="matrix(1,0,0,-1,29,85.4168)"
               id="text168"><tspan
                 style="fill:#000000;fill-opacity:1;fill-rule:nonzero;stroke:none;font-family:Helvetica;font-variant:normal;font-weight:normal;font-size:18;writing-mode:lr;-inkscape-font-specification:Helvetica"
                 x="0 10.512 20.52"
                 y="0"
                 sodipodi:role="line"
                 id="tspan170">−60</tspan></text>
</g><path
             d="m 624.168,1405 36.664,0"
             style="fill:none;stroke:#000000;stroke-opacity:1;stroke-width:20;stroke-linecap:butt;stroke-linejoin:round;stroke-miterlimit:10;stroke-dasharray:none"
             id="path172" /><path
             d="m 4347.5,1405 -37.5,0"
             style="fill:none;stroke:#000000;stroke-opacity:1;stroke-width:20;stroke-linecap:butt;stroke-linejoin:round;stroke-miterlimit:10;stroke-dasharray:none"
             id="path174" /><g
             id="g176"
             transform="scale(10,10)"><text
               transform="matrix(1,0,0,-1,29,133.833)"
               id="text178"><tspan
                 style="fill:#000000;fill-opacity:1;fill-rule:nonzero;stroke:none;font-family:Helvetica;font-variant:normal;font-weight:normal;font-size:18;writing-mode:lr;-inkscape-font-specification:Helvetica"
                 x="0 10.512 20.52"
                 y="0"
                 sodipodi:role="line"
                 id="tspan180">−40</tspan></text>
</g><path
             d="m 624.168,1888.33 36.664,0"
             style="fill:none;stroke:#000000;stroke-opacity:1;stroke-width:20;stroke-linecap:butt;stroke-linejoin:round;stroke-miterlimit:10;stroke-dasharray:none"
             id="path182" /><path
             d="m 4347.5,1888.33 -37.5,0"
             style="fill:none;stroke:#000000;stroke-opacity:1;stroke-width:20;stroke-linecap:butt;stroke-linejoin:round;stroke-miterlimit:10;stroke-dasharray:none"
             id="path184" /><g
             id="g186"
             transform="scale(10,10)"><text
               transform="matrix(1,0,0,-1,29,182.167)"
               id="text188"><tspan
                 style="fill:#000000;fill-opacity:1;fill-rule:nonzero;stroke:none;font-family:Helvetica;font-variant:normal;font-weight:normal;font-size:18;writing-mode:lr;-inkscape-font-specification:Helvetica"
                 x="0 10.512 20.52"
                 y="0"
                 sodipodi:role="line"
                 id="tspan190">−20</tspan></text>
</g><path
             d="m 624.168,2372.5 36.664,0"
             style="fill:none;stroke:#000000;stroke-opacity:1;stroke-width:20;stroke-linecap:butt;stroke-linejoin:round;stroke-miterlimit:10;stroke-dasharray:none"
             id="path192" /><path
             d="m 4347.5,2372.5 -37.5,0"
             style="fill:none;stroke:#000000;stroke-opacity:1;stroke-width:20;stroke-linecap:butt;stroke-linejoin:round;stroke-miterlimit:10;stroke-dasharray:none"
             id="path194" /><g
             id="g196"
             transform="scale(10,10)"><text
               transform="matrix(1,0,0,-1,49.5,230.583)"
               id="text198"><tspan
                 style="fill:#000000;fill-opacity:1;fill-rule:nonzero;stroke:none;font-family:Helvetica;font-variant:normal;font-weight:normal;font-size:18;writing-mode:lr;-inkscape-font-specification:Helvetica"
                 x="0"
                 y="0"
                 id="tspan200">0</tspan></text>
</g><path
             d="m 624.168,2856.67 36.664,0"
             style="fill:none;stroke:#000000;stroke-opacity:1;stroke-width:20;stroke-linecap:butt;stroke-linejoin:round;stroke-miterlimit:10;stroke-dasharray:none"
             id="path202" /><path
             d="m 4347.5,2856.67 -37.5,0"
             style="fill:none;stroke:#000000;stroke-opacity:1;stroke-width:20;stroke-linecap:butt;stroke-linejoin:round;stroke-miterlimit:10;stroke-dasharray:none"
             id="path204" /><g
             id="g206"
             transform="scale(10,10)"><text
               transform="matrix(1,0,0,-1,39.5,279)"
               id="text208"><tspan
                 style="fill:#000000;fill-opacity:1;fill-rule:nonzero;stroke:none;font-family:Helvetica;font-variant:normal;font-weight:normal;font-size:18;writing-mode:lr;-inkscape-font-specification:Helvetica"
                 x="0 10.008"
                 y="0"
                 sodipodi:role="line"
                 id="tspan210">20</tspan></text>
</g><path
             d="m 624.168,3340 36.664,0"
             style="fill:none;stroke:#000000;stroke-opacity:1;stroke-width:20;stroke-linecap:butt;stroke-linejoin:round;stroke-miterlimit:10;stroke-dasharray:none"
             id="path212" /><path
             d="m 4347.5,3340 -37.5,0"
             style="fill:none;stroke:#000000;stroke-opacity:1;stroke-width:20;stroke-linecap:butt;stroke-linejoin:round;stroke-miterlimit:10;stroke-dasharray:none"
             id="path214" /><g
             id="g216"
             transform="scale(10,10)"><text
               transform="matrix(1,0,0,-1,39.5,327.333)"
               id="text218"><tspan
                 style="fill:#000000;fill-opacity:1;fill-rule:nonzero;stroke:none;font-family:Helvetica;font-variant:normal;font-weight:normal;font-size:18;writing-mode:lr;-inkscape-font-specification:Helvetica"
                 x="0 10.008"
                 y="0"
                 sodipodi:role="line"
                 id="tspan220">40</tspan></text>
</g><path
             d="m 624.168,3340 3723.332,0"
             style="fill:none;stroke:#000000;stroke-opacity:1;stroke-width:20;stroke-linecap:butt;stroke-linejoin:round;stroke-miterlimit:10;stroke-dasharray:none"
             id="path222" /><path
             d="m 624.168,436.668 3723.332,0"
             style="fill:none;stroke:#000000;stroke-opacity:1;stroke-width:20;stroke-linecap:butt;stroke-linejoin:round;stroke-miterlimit:10;stroke-dasharray:none"
             id="path224" /><path
             d="m 4347.5,436.668 0,2903.332"
             style="fill:none;stroke:#000000;stroke-opacity:1;stroke-width:20;stroke-linecap:butt;stroke-linejoin:round;stroke-miterlimit:10;stroke-dasharray:none"
             id="path226" /><path
             d="m 624.168,436.668 0,2903.332"
             style="fill:none;stroke:#000000;stroke-opacity:1;stroke-width:20;stroke-linecap:butt;stroke-linejoin:round;stroke-miterlimit:10;stroke-dasharray:none"
             id="path228" /></g></g><g
         id="g230"><g
           id="g232"
           clip-path="url(#clipPath234)"><path
             d="m 3803.33,981.668 4.17,0 1.67,-0.836 5,0 1.66,-0.832 4.17,0 1.67,-0.832 5.83,0 1.67,-0.836 5,0 1.66,-0.832 5.84,0 1.66,-0.832 5.84,0 1.66,-0.836 5,0 2.5,-0.832 5,0 1.67,-0.832 5.83,0 1.67,-0.836 5.83,0 1.67,-0.832 7.5,0 1.67,-0.832 5,0 1.66,-0.836 7.5,0 1.67,-0.832 5.83,0 1.67,-0.832 7.5,0 1.67,-0.836 7.5,0 1.66,-0.832 7.5,0 1.67,-0.832 7.5,0 1.67,-0.836 6.66,0 2.5,-0.832 6.67,0 2.5,-0.832 8.33,0 2.5,-0.836 9.17,0 1.67,-0.832 6.66,0 2.5,-0.832 9.17,0 1.67,-0.836 10.83,0 1.67,-0.832 9.16,0 1.67,-0.832 10.83,0 1.67,-0.836 10.83,0 2.5,-0.832 10.84,0 1.66,-0.832 12.5,0 1.67,-0.836 15,0 1.67,-0.832 12.5,0 1.66,-0.832 16.67,0 1.67,-0.836 16.66,0 1.67,-0.832 20,0 1.67,-0.832 21.66,0 2.5,-0.836 26.67,0 2.5,-0.832 35.83,0 1.67,-0.832 80,0 2.5,-73.336"
             style="fill:none;stroke:#bf5454;stroke-opacity:1;stroke-width:20;stroke-linecap:butt;stroke-linejoin:round;stroke-miterlimit:10;stroke-dasharray:none"
             id="path238" /><path
             d="m 3260,1106.67 1.67,-0.84 1.66,0 1.67,-0.83 2.5,-0.83 1.67,-0.84 1.66,-0.83 1.67,0 1.67,-0.83 2.5,-0.84 1.66,-0.83 1.67,-0.83 1.67,0 1.66,-0.84 1.67,-0.83 2.5,-0.83 1.67,-0.84 1.66,0 1.67,-0.83 1.67,-0.83 2.5,-0.84 1.66,0 1.67,-0.83 1.67,-0.83 1.66,-0.84 1.67,-0.83 2.5,0 1.67,-0.83 1.66,-0.84 1.67,0 1.67,-0.83 2.5,-0.83 1.66,-0.84 1.67,0 1.67,-0.83 1.66,-0.83 1.67,-0.84 2.5,0 1.67,-0.83 1.66,-0.83 1.67,0 1.67,-0.84 2.5,-0.83 1.66,-0.83 1.67,0 1.67,-0.84 1.66,-0.83 1.67,0 2.5,-0.83 1.67,-0.84 1.66,0 1.67,-0.83 1.67,-0.83 2.5,0 1.66,-0.84 1.67,-0.83 1.67,0 1.66,-0.83 1.67,-0.84 2.5,0 1.67,-0.83 1.66,-0.83 1.67,0 1.67,-0.84 2.5,-0.83 1.66,0 1.67,-0.83 1.67,-0.84 1.66,0 1.67,-0.83 2.5,-0.83 1.67,0 1.66,-0.84 1.67,0 1.67,-0.83 2.5,-0.83 1.66,0 1.67,-0.84 1.67,-0.83 1.66,0 1.67,-0.83 2.5,0 1.67,-0.84 1.66,-0.83 1.67,0 1.67,-0.83 2.5,0 1.66,-0.84 1.67,-0.83 1.67,0 1.66,-0.83 1.67,0 2.5,-0.84 1.67,-0.83 1.66,0 1.67,-0.83 1.67,0 1.66,-0.84 2.5,0 1.67,-0.83 1.67,-0.83 1.66,0 1.67,-0.84 2.5,0 1.67,-0.83 1.66,0 1.67,-0.83 1.67,-0.84 1.66,0 2.5,-0.83 1.67,0 1.67,-0.83 1.66,0 1.67,-0.84 2.5,0 1.67,-0.83 1.66,0 1.67,-0.83 1.67,-0.84 1.66,0 2.5,-0.83 1.67,0 1.67,-0.83 1.66,0 1.67,-0.84 2.5,0 1.67,-0.83 1.66,0 1.67,-0.83 1.67,0 1.66,-0.84 2.5,0 1.67,-0.83 1.67,0 1.66,-0.83 1.67,0 2.5,-0.84 1.67,0 1.66,-0.83 1.67,0 1.67,-0.83 1.66,0 2.5,-0.84 1.67,0 1.67,-0.83 1.66,0 1.67,-0.83 2.5,0 1.67,-0.84 1.66,0 1.67,-0.83 1.67,0 1.66,-0.83 2.5,0 1.67,-0.84 3.33,0 1.67,-0.83 2.5,0 1.67,-0.83 1.66,0 1.67,-0.84 1.67,0 1.66,-0.83 2.5,0 1.67,-0.83 1.67,0 1.66,-0.84 4.17,0 1.67,-0.83 1.66,0 1.67,-0.83 1.67,0 1.66,-0.84 2.5,0 1.67,-0.83 3.33,0 1.67,-0.83 2.5,0 1.67,-0.84 1.66,0 1.67,-0.83 3.33,0 2.5,-0.83 1.67,0 1.67,-0.84 3.33,0 2.5,-0.83 1.67,0 1.66,-0.83 1.67,0 1.67,-0.84 4.16,0 1.67,-0.83 1.67,0 1.66,-0.83 4.17,0 1.67,-0.84 1.66,0 1.67,-0.83 3.33,0 2.5,-0.83 3.34,0 1.66,-0.84 1.67,0 2.5,-0.83 3.33,0 1.67,-0.83 1.67,0 1.66,-0.84 4.17,0 1.67,-0.83 3.33,0 2.5,-0.83 3.33,0 1.67,-0.84 1.67,0 1.66,-0.83 4.17,0 1.67,-0.832 3.33,0 2.5,-0.836 3.33,0 1.67,-0.832 3.33,0 2.5,-0.832 1.67,0 1.67,-0.836 3.33,0 2.5,-0.832 3.33,0 1.67,-0.832 3.33,0 2.5,-0.836 3.34,0 1.66,-0.832 4.17,0 1.67,-0.832 5,0 1.66,-0.836 4.17,0 1.67,-0.832 3.33,0 2.5,-0.832 3.33,0 1.67,-0.836 3.33,0 2.5,-0.832 5,0 1.67,-0.832 4.17,0 1.66,-0.836 3.34,0 1.66,-0.832 5.84,0 1.66,-0.832 4.17,0 1.67,-0.836 5,0 1.66,-0.832 4.17,0 1.67,-0.832 1.66,0"
             style="fill:none;stroke:#bf5454;stroke-opacity:1;stroke-width:20;stroke-linecap:butt;stroke-linejoin:round;stroke-miterlimit:10;stroke-dasharray:none"
             id="path240" /><path
             d="m 2716.67,1677.5 1.66,11.67 1.67,12.5 1.67,13.33 1.66,14.17 1.67,15 2.5,15.83 1.67,16.67 1.66,18.33 1.67,20 1.67,20 2.5,21.67 1.66,20.83 1.67,15.83 1.67,-13.33 1.66,-495 1.67,980 2.5,512.5 1.67,49.17 1.66,-336.67 1.67,-769.17 1.67,37.5 2.5,36.67 1.66,-11.67 1.67,-20 1.67,-21.66 1.66,-20.84 1.67,-20 2.5,-19.16 1.67,-16.67 1.66,-16.67 1.67,-15 1.67,-14.16 2.5,-13.34 1.66,-12.5 1.67,-12.5 1.67,-10.83 1.66,-10.83 1.67,-10.84 2.5,-9.16 1.67,-10 1.66,-8.34 1.67,-9.16 1.67,-8.34 2.5,-7.5 1.66,-7.5 1.67,-7.5 1.67,-7.5 1.66,-6.66 1.67,-6.67 2.5,-6.67 1.67,-6.66 1.66,-5.84 1.67,-5.83 1.67,-5.83 2.5,-5.84 1.66,-5.83 1.67,-5 1.67,-5 1.66,-5 1.67,-5 2.5,-5 1.67,-5 1.66,-5 1.67,-4.17 1.67,-4.16 2.5,-5 1.66,-4.17 1.67,-4.17 1.67,-4.16 1.66,-4.17 1.67,-3.33 2.5,-4.17 1.67,-4.17 1.66,-3.33 1.67,-3.33 1.67,-4.17 2.5,-3.33 1.66,-3.34 1.67,-3.33 1.67,-3.33 1.66,-3.34 1.67,-3.33 2.5,-3.33 1.67,-3.34 1.66,-3.33 1.67,-2.5 1.67,-3.33 2.5,-3.34 1.66,-2.5 1.67,-3.33 1.67,-2.5 1.66,-2.5 1.67,-3.33 2.5,-2.5 1.67,-2.5 1.66,-3.34 1.67,-2.5 1.67,-2.5 2.5,-2.5 1.66,-2.5 1.67,-2.5 1.67,-2.5 1.66,-2.5 1.67,-2.5 2.5,-2.5 1.67,-2.5 1.66,-1.66 1.67,-2.5 1.67,-2.5 2.5,-2.5 1.66,-1.67 1.67,-2.5 1.67,-2.5 1.66,-1.67 1.67,-2.5 2.5,-1.66 1.67,-2.5 1.66,-1.67 1.67,-2.5 1.67,-1.67 2.5,-2.5 1.66,-1.66 1.67,-2.5 1.67,-1.67 1.66,-1.67 1.67,-2.5 2.5,-1.66 1.67,-1.67 1.66,-1.67 1.67,-2.5 1.67,-1.66 2.5,-1.67 1.66,-1.67 1.67,-1.66 1.67,-2.5 1.66,-1.67 1.67,-1.67 2.5,-1.66 1.67,-1.67 1.66,-1.67 1.67,-1.66 1.67,-1.67 2.5,-1.67 1.66,-1.66 1.67,-1.67 1.67,-1.67 1.66,-1.66 1.67,-1.67 2.5,-1.67 1.67,-0.83 1.66,-1.67 1.67,-1.66 1.67,-1.67 2.5,-1.67 1.66,-1.66 1.67,-0.84 1.67,-1.66 1.66,-1.67 1.67,-1.67 2.5,-1.66 1.67,-0.84 1.66,-1.66 1.67,-1.67 1.67,-0.83 2.5,-1.67 1.66,-1.67 1.67,-0.83 1.67,-1.67 1.66,-1.66 1.67,-0.84 2.5,-1.66 1.67,-1.67 1.66,-0.83 1.67,-1.67 1.67,-0.83 2.5,-1.67 1.66,-0.83 1.67,-1.67 1.67,-0.83 1.66,-1.67 1.67,-1.67 2.5,-0.83 1.67,-1.67 1.66,-0.83 1.67,-0.83 1.67,-1.67 2.5,-0.83 1.66,-1.67 1.67,-0.83 1.67,-1.67 1.66,-0.83 1.67,-1.67 2.5,-0.83 1.67,-0.84 1.66,-1.66 1.67,-0.84 1.67,-0.83 2.5,-1.67 1.66,-0.83 1.67,-1.67 1.67,-0.83 1.66,-0.83 1.67,-1.67 2.5,-0.83 1.67,-0.84 1.66,-0.83 1.67,-1.67 1.67,-0.83 2.5,-0.83 1.66,-1.67 1.67,-0.83 1.67,-0.84 1.66,-0.83 1.67,-1.67 2.5,-0.83 1.67,-0.83 1.66,-0.84 1.67,-1.66 1.67,-0.84 2.5,-0.83 1.66,-0.83 1.67,-0.84 1.67,-1.66 1.66,-0.84 1.67,-0.83 2.5,-0.83 1.67,-0.84 1.66,-0.83 1.67,-0.83 1.67,-1.67 2.5,-0.83 1.66,-0.84 1.67,-0.83 1.67,-0.83 1.66,-0.84 1.67,-0.83 2.5,-0.83 1.67,-1.67 1.66,-0.83 1.67,-0.84 1.67,-0.83 2.5,-0.83 1.66,-0.84 1.67,-0.83 1.67,-0.83 1.66,-0.84 1.67,-0.83 2.5,-0.83 1.67,-0.84 1.66,-0.83 1.67,-0.83 1.67,-0.84 2.5,-0.83 1.66,-0.83 1.67,-0.84 1.67,-0.83 1.66,-0.83 1.67,-0.84 2.5,-0.83 1.67,-0.83 1.66,-0.84 1.67,-0.83 1.67,-0.83 2.5,-0.84 1.66,-0.83 1.67,-0.83 1.67,-0.84 1.66,-0.83 1.67,-0.83 2.5,-0.84 1.67,-0.83 1.66,-0.83 1.67,-0.84 1.67,-0.83 2.5,-0.83 1.66,-0.84 1.67,-0.83 1.67,0 1.66,-0.83 1.67,-0.84 2.5,-0.83 1.67,-0.83 1.66,-0.84 1.67,-0.83 1.67,-0.83 2.5,-0.84 1.66,-0.83 1.67,0 1.67,-0.83 1.66,-0.84 1.67,-0.83 2.5,-0.83 1.67,-0.84 1.66,-0.83 1.67,0 1.67,-0.83 2.5,-0.84 1.66,-0.83 1.67,-0.83"
             style="fill:none;stroke:#bf5454;stroke-opacity:1;stroke-width:20;stroke-linecap:butt;stroke-linejoin:round;stroke-miterlimit:10;stroke-dasharray:none"
             id="path242" /><path
             d="m 2172.5,1083.33 1.67,0 2.5,0.84 1.66,0.83 1.67,0.83 1.67,0 1.66,0.84 2.5,0.83 1.67,0.83 1.67,0 1.66,0.84 1.67,0.83 1.67,0.83 2.5,0.84 1.66,0 1.67,0.83 1.67,0.83 1.66,0.84 2.5,0 1.67,0.83 1.67,0.83 1.66,0.84 1.67,0.83 1.67,0 2.5,0.83 1.66,0.84 1.67,0.83 1.67,0.83 1.66,0 2.5,0.84 1.67,0.83 1.67,0.83 1.66,0.84 1.67,0.83 1.67,0 2.5,0.83 1.66,0.84 1.67,0.83 1.67,0.83 1.66,0.84 2.5,0.83 1.67,0 1.67,0.83 1.66,0.84 1.67,0.83 1.67,0.83 2.5,0.84 1.66,0.83 1.67,0.83 1.67,0 1.66,0.84 2.5,0.83 1.67,0.83 1.67,0.84 1.66,0.83 1.67,0.83 1.67,0.84 2.5,0.83 1.66,0.83 1.67,0 1.67,0.84 1.66,0.83 2.5,0.83 1.67,0.84 1.67,0.83 1.66,0.83 1.67,0.84 1.67,0.83 2.5,0.83 1.66,0.84 1.67,0.83 1.67,0.83 1.66,0.84 2.5,0.83 1.67,0.83 1.67,0.84 1.66,0.83 1.67,0.83 1.67,0.84 2.5,0.83 1.66,0.83 1.67,0.84 1.67,0.83 1.66,0.83 2.5,0.84 1.67,0.83 1.67,0.83 1.66,0.84 1.67,0.83 1.67,0.83 2.5,0.84 1.66,0.83 1.67,1.67 1.67,0.83 1.66,0.83 2.5,0.84 1.67,0.83 1.67,0.83 1.66,0.84 1.67,0.83 1.67,0.83 2.5,0.84 1.66,1.66 1.67,0.84 1.67,0.83 1.66,0.83 2.5,0.84 1.67,0.83 1.67,0.83 1.66,1.67 1.67,0.83 1.67,0.84 2.5,0.83 1.66,0.83 1.67,1.67 1.67,0.83 1.66,0.84 2.5,0.83 1.67,0.83 1.67,1.67 1.66,0.83 1.67,0.84 1.67,0.83 2.5,1.67 1.66,0.83 1.67,0.83 1.67,1.67 1.66,0.83 2.5,0.84 1.67,0.83 1.67,1.67 1.66,0.83 1.67,0.83 1.67,1.67 2.5,0.83 1.66,0.84 1.67,1.66 1.67,0.84 1.66,0.83 2.5,1.67 1.67,0.83 1.67,1.67 1.66,0.83 1.67,0.83 1.67,1.67 2.5,0.83 1.66,1.67 1.67,0.83 1.67,1.67 1.66,0.83 2.5,1.67 1.67,0.83 1.67,1.67 1.66,0.83 1.67,1.67 1.67,0.83 2.5,1.67 1.66,0.83 1.67,1.67 1.67,0.83 1.66,1.67 2.5,0.83 1.67,1.67 1.67,1.67 1.66,0.83 1.67,1.67 1.67,1.66 2.5,0.84 1.66,1.66 1.67,1.67 1.67,0.83 1.66,1.67 2.5,1.67 1.67,0.83 1.67,1.67 1.66,1.66 1.67,1.67 1.67,0.83 2.5,1.67 1.66,1.67 1.67,1.66 1.67,1.67 1.66,0.83 1.67,1.67 2.5,1.67 1.67,1.66 1.66,1.67 1.67,1.67 1.67,1.66 2.5,1.67 1.66,1.67 1.67,1.66 1.67,1.67 1.66,1.67 1.67,1.66 2.5,1.67 1.67,1.67 1.66,1.66 1.67,1.67 1.67,1.67 2.5,1.66 1.66,1.67 1.67,1.67 1.67,2.5 1.66,1.66 1.67,1.67 2.5,1.67 1.67,2.5 1.66,1.66 1.67,1.67 1.67,1.67 2.5,2.5 1.66,1.66 1.67,2.5 1.67,1.67 1.66,1.67 1.67,2.5 2.5,1.66 1.67,2.5 1.66,1.67 1.67,2.5 1.67,2.5 2.5,1.67 1.66,2.5 1.67,2.5 1.67,1.66 1.66,2.5 1.67,2.5 2.5,2.5 1.67,1.67 1.66,2.5 1.67,2.5 1.67,2.5 2.5,2.5 1.66,2.5 1.67,2.5 1.67,2.5 1.66,2.5 1.67,3.33 2.5,2.5 1.67,2.5 1.66,2.5 1.67,3.34 1.67,2.5 2.5,2.5 1.66,3.33 1.67,2.5 1.67,3.33 1.66,3.34 1.67,2.5 2.5,3.33 1.67,3.33 1.66,3.34 1.67,3.33 1.67,3.33 2.5,3.34 1.66,3.33 1.67,3.33 1.67,3.34 1.66,3.33 1.67,4.17 2.5,3.33 1.67,4.17 1.66,3.33 1.67,4.17 1.67,4.16 2.5,4.17 1.66,4.17 1.67,4.16 1.67,4.17 1.66,4.17 1.67,5 2.5,4.16 1.67,5 1.66,5 1.67,5 1.67,5 2.5,5 1.66,5.84 1.67,5 1.67,5.83 1.66,5.83 1.67,5.84 2.5,5.83 1.67,6.67 1.66,5.83 1.67,6.67 1.67,7.5 2.5,6.66 1.66,7.5 1.67,7.5 1.67,8.34 1.66,7.5 1.67,9.16 2.5,8.34 1.67,9.16 1.66,10 1.67,10 1.67,10.84 2.5,10.83"
             style="fill:none;stroke:#bf5454;stroke-opacity:1;stroke-width:20;stroke-linecap:butt;stroke-linejoin:round;stroke-miterlimit:10;stroke-dasharray:none"
             id="path244" /><path
             d="m 1629.17,964.168 1.66,0 1.67,0.832 4.17,0 1.66,0.832 3.34,0 1.66,0.836 4.17,0 1.67,0.832 5,0 2.5,0.832 3.33,0 1.67,0.836 4.16,0 1.67,0.832 3.33,0 1.67,0.832 4.17,0 1.66,0.836 3.34,0 1.66,0.832 4.17,0 1.67,0.832 3.33,0 1.67,0.836 4.16,0 1.67,0.832 3.33,0 2.5,0.832 3.34,0 1.66,0.836 3.34,0 2.5,0.832 3.33,0 1.67,0.832 4.16,0 1.67,0.836 3.33,0 1.67,0.832 4.17,0 1.66,0.832 1.67,0 1.67,0.836 4.16,0 1.67,0.832 3.33,0 1.67,0.832 4.17,0 1.66,0.836 1.67,0 1.67,0.832 4.16,0 1.67,0.832 3.33,0 1.67,0.836 4.17,0 1.66,0.832 1.67,0 1.67,0.832 4.16,0 1.67,0.836 1.67,0 1.66,0.832 3.34,0 2.5,0.832 3.33,0 1.67,0.836 1.66,0 2.5,0.832 3.34,0 1.66,0.832 1.67,0 1.67,0.836 4.16,0 1.67,0.832 1.67,0 1.66,0.832 4.17,0 1.67,0.836 1.66,0 1.67,0.832 1.67,0 2.5,0.832 3.33,0 1.67,0.836 1.66,0 2.5,0.832 3.34,0 1.66,0.83 1.67,0 1.67,0.84 2.5,0 1.66,0.83 3.34,0 1.66,0.83 2.5,0 1.67,0.84 1.67,0 1.66,0.83 3.34,0 2.5,0.83 1.66,0 1.67,0.84 1.67,0 1.66,0.83 2.5,0 1.67,0.83 3.33,0 1.67,0.84 1.67,0 2.5,0.83 1.66,0 1.67,0.83 1.67,0 1.66,0.84 2.5,0 1.67,0.83 3.33,0 1.67,0.83 1.67,0 2.5,0.84 1.66,0 1.67,0.83 1.67,0 1.66,0.83 2.5,0 1.67,0.84 1.67,0 1.66,0.83 1.67,0 1.67,0.83 2.5,0 1.66,0.84 1.67,0 1.67,0.83 1.66,0 2.5,0.83 1.67,0 1.67,0.84 3.33,0 1.67,0.83 2.5,0 1.66,0.83 1.67,0 1.67,0.84 1.66,0.83 2.5,0 1.67,0.83 1.67,0 1.66,0.84 1.67,0 1.67,0.83 2.5,0 1.66,0.83 1.67,0 1.67,0.84 1.66,0 2.5,0.83 1.67,0 1.67,0.83 1.66,0 1.67,0.84 1.67,0 2.5,0.83 1.66,0 1.67,0.83 1.67,0 1.66,0.84 2.5,0.83 1.67,0 1.67,0.83 1.66,0 1.67,0.84 1.67,0 2.5,0.83 1.66,0 1.67,0.83 1.67,0.84 1.66,0 2.5,0.83 1.67,0 1.67,0.83 1.66,0 1.67,0.84 1.67,0 2.5,0.83 1.66,0.83 1.67,0 1.67,0.84 1.66,0 2.5,0.83 1.67,0 1.67,0.83 1.66,0.84 1.67,0 1.67,0.83 2.5,0 1.66,0.83 1.67,0.84 1.67,0 1.66,0.83 2.5,0 1.67,0.83 1.67,0.84 1.66,0 1.67,0.83 1.67,0 2.5,0.83 1.66,0.84 1.67,0 1.67,0.83 1.66,0.83 2.5,0 1.67,0.84 1.67,0 1.66,0.83 1.67,0.83 1.67,0 2.5,0.84 1.66,0.83 1.67,0 1.67,0.83 1.66,0 2.5,0.84 1.67,0.83 1.67,0 1.66,0.83 1.67,0.84 1.67,0 2.5,0.83 1.66,0.83 1.67,0 1.67,0.84 1.66,0.83 2.5,0 1.67,0.83 1.67,0.84 1.66,0 1.67,0.83 1.67,0.83 2.5,0 1.66,0.84 1.67,0.83 1.67,0.83 1.66,0 2.5,0.84 1.67,0.83 1.67,0 1.66,0.83 1.67,0.84 1.67,0 2.5,0.83 1.66,0.83 1.67,0.84 1.67,0 1.66,0.83 2.5,0.83 1.67,0.84 1.67,0 1.66,0.83 1.67,0.83"
             style="fill:none;stroke:#bf5454;stroke-opacity:1;stroke-width:20;stroke-linecap:butt;stroke-linejoin:round;stroke-miterlimit:10;stroke-dasharray:none"
             id="path246" /><path
             d="m 1085.83,914.168 1.67,0.832 12.5,0 1.67,0.832 13.33,0 1.67,0.836 12.5,0 1.66,0.832 12.5,0 2.5,0.832 12.5,0 1.67,0.836 10.83,0 1.67,0.832 10.83,0 2.5,0.832 10.84,0 1.66,0.836 10.84,0 1.66,0.832 9.17,0 1.67,0.832 10.83,0 2.5,0.836 8.33,0 2.5,0.832 9.17,0 1.67,0.832 9.16,0 1.67,0.836 9.17,0 1.66,0.832 9.17,0 1.67,0.832 9.16,0 1.67,0.836 7.5,0 1.67,0.832 9.16,0 1.67,0.832 7.5,0 1.67,0.836 9.16,0 1.67,0.832 7.5,0 1.67,0.832 7.5,0 1.66,0.836 7.5,0 1.67,0.832 7.5,0 1.67,0.832 6.66,0 2.5,0.836 6.67,0 2.5,0.832 6.67,0 1.66,0.832 5.84,0 1.66,0.836 7.5,0 1.67,0.832 7.5,0 1.67,0.832 5.83,0 1.67,0.836 6.66,0 2.5,0.832 5,0 1.67,0.832 5.83,0 1.67,0.836 7.5,0 1.67,0.832 5.83,0 1.67,0.832 5,0 1.66,0.836 5.84,0 1.66,0.832 5.84,0 1.66,0.832 5,0 2.5,0.836 5,0 1.67,0.832 5.83,0 1.67,0.832 5.83,0 1.67,0.836 5,0 2.5,0.832 5,0 1.67,0.832 5.83,0 1.67,0.836 3.33,0 2.5,0.832 5,0 1.67,0.832 5.83,0 1.67,0.836 3.33,0 1.67,0.832 5.83,0 1.67,0.832 5.83,0 1.67,0.836 3.33,0 1.67,0.832 5.83,0 1.67,0.832 4.16,0 1.67,0.836 3.33,0 1.67,0.832 5.83,0 1.67,0.832 3.33,0 2.5,0.836 3.34,0"
             style="fill:none;stroke:#bf5454;stroke-opacity:1;stroke-width:20;stroke-linecap:butt;stroke-linejoin:round;stroke-miterlimit:10;stroke-dasharray:none"
             id="path248" /><path
             d="m 624.168,830 1.664,72.5 60,0 1.668,0.832 74.168,0 1.664,0.836 45.836,0 1.664,0.832 35,0 1.668,0.832 29.168,0 1.664,0.836 27.5,0 1.668,0.832 23.332,0 1.668,0.832 22.5,0 1.668,0.836 20,0 1.664,0.832 18.336,0 1.664,0.832 18.338,0 1.66,0.836 16.67,0 1.67,0.832 15.83,0 2.5,0.832 14.17,0 1.66,0.836 15,0"
             style="fill:none;stroke:#bf5454;stroke-opacity:1;stroke-width:20;stroke-linecap:butt;stroke-linejoin:round;stroke-miterlimit:10;stroke-dasharray:none"
             id="path250" /></g></g><g
         id="g252"><g
           id="g254"
           clip-path="url(#clipPath256)"><g
             id="g260"
             transform="scale(10,10)"><text
               transform="scale(1,-1)"
               id="text262"
               x="38.68306"
               y="-6.25"><tspan
                 style="font-size:18px;font-variant:normal;font-weight:normal;writing-mode:lr-tb;fill:#000000;fill-opacity:1;fill-rule:nonzero;stroke:none;font-family:Helvetica;-inkscape-font-specification:Helvetica"
                 x="38.68306"
                 sodipodi:role="line"
                 id="tspan264"
                 y="-6.25">                     Нормированная частота </tspan></text>
<text
               transform="matrix(1,0,0,-1,294.667,6.25)"
               id="text266"><tspan
                 style="font-size:18px;font-variant:normal;font-weight:normal;writing-mode:lr-tb;fill:#000000;fill-opacity:1;fill-rule:nonzero;stroke:none;font-family:Symbol;-inkscape-font-specification:Symbol"
                 x="0"
                 y="0"
                 id="tspan268" /></text>
<text
               transform="matrix(1,0,0,-1,304.5002,6.25)"
               id="text270"><tspan
                 style="font-size:18px;font-variant:normal;font-weight:normal;writing-mode:lr-tb;fill:#000000;fill-opacity:1;fill-rule:nonzero;stroke:none;font-family:Helvetica;-inkscape-font-specification:Helvetica"
                 x="0"
                 y="0"
                 sodipodi:role="line"
                 id="tspan272" /></text>
<text
               transform="matrix(0,1,1,0,20.4168,177.75)"
               id="text274"><tspan
                 style="font-size:18px;font-variant:normal;font-weight:normal;writing-mode:lr-tb;fill:#000000;fill-opacity:1;fill-rule:nonzero;stroke:none;font-family:Helvetica;-inkscape-font-specification:Helvetica"
                 x="0"
                 y="0"
                 sodipodi:role="line"
                 id="tspan276">дБ</tspan></text>
</g></g></g></g></g></svg>